<svg xmlns="http://www.w3.org/2000/svg" xmlns:xlink="http://www.w3.org/1999/xlink" version="1.1" width="256" height="256" viewBox="0 0 256 256" xml:space="preserve">
<g style="stroke: none; stroke-width: 0; stroke-dasharray: none; stroke-linecap: butt; stroke-linejoin: miter; stroke-miterlimit: 10; fill: none; fill-rule: nonzero; opacity: 1;" transform="translate(1.4065934065934016 1.4065934065934016) scale(2.81 2.81)">
	<path d="M 22.424 90 c -5.092 0 -9.235 -4.143 -9.235 -9.235 v -3.953 H 9.236 C 4.143 76.812 0 72.668 0 67.575 s 4.143 -9.235 9.236 -9.235 h 9.363 L 58.34 18.599 V 9.236 C 58.34 4.143 62.482 0 67.575 0 s 9.236 4.143 9.236 9.236 v 3.953 h 3.953 c 5.093 0 9.235 4.143 9.235 9.235 c 0 5.093 -4.143 9.236 -9.235 9.236 H 71.4 L 31.66 71.4 v 9.364 C 31.66 85.857 27.517 90 22.424 90 z M 9.236 60.34 C 5.246 60.34 2 63.586 2 67.575 c 0 3.99 3.246 7.236 7.236 7.236 h 4.953 c 0.552 0 1 0.447 1 1 v 4.953 c 0 3.989 3.246 7.235 7.235 7.235 s 7.236 -3.246 7.236 -7.235 v -9.778 c 0 -0.266 0.105 -0.52 0.293 -0.707 l 40.326 -40.326 c 0.188 -0.188 0.441 -0.293 0.707 -0.293 h 9.778 c 3.989 0 7.235 -3.246 7.235 -7.236 s -3.246 -7.235 -7.235 -7.235 h -4.953 c -0.553 0 -1 -0.448 -1 -1 V 9.236 c 0 -3.99 -3.246 -7.236 -7.236 -7.236 c -3.989 0 -7.235 3.246 -7.235 7.236 v 9.777 c 0 0.265 -0.105 0.52 -0.293 0.707 L 19.72 60.047 c -0.188 0.188 -0.442 0.293 -0.707 0.293 H 9.236 z" style="stroke: none; stroke-width: 1; stroke-dasharray: none; stroke-linecap: butt; stroke-linejoin: miter; stroke-miterlimit: 10; fill: rgb(0,0,0); fill-rule: nonzero; opacity: 1;" transform=" matrix(1 0 0 1 0 0) " stroke-linecap="round"/>
</g>
</svg>