<?xml version="1.0" standalone="no"?>
<!DOCTYPE svg PUBLIC "-//W3C//DTD SVG 20010904//EN"
 "http://www.w3.org/TR/2001/REC-SVG-20010904/DTD/svg10.dtd">
<svg version="1.0" xmlns="http://www.w3.org/2000/svg"
 width="287.000000pt" height="223.000000pt" viewBox="0 0 287.000000 223.000000"
 preserveAspectRatio="xMidYMid meet">

<g transform="translate(0.000000,223.000000) scale(0.100000,-0.100000)"
fill="#000000" stroke="none">
<path d="M715 1998 c-11 -6 -44 -33 -73 -59 -30 -26 -81 -61 -115 -78 -56 -27
-66 -30 -104 -21 -58 14 -110 -5 -140 -49 -21 -31 -23 -46 -23 -160 -1 -83 -8
-163 -21 -236 -33 -175 -33 -169 -10 -212 22 -44 69 -73 118 -73 15 0 52 11
82 25 l54 25 -7 -72 c-9 -103 9 -226 50 -334 18 -50 34 -96 34 -102 0 -5 -9
-29 -20 -53 -38 -84 -15 -172 51 -199 18 -8 38 -28 50 -52 19 -37 79 -77 117
-78 7 0 28 -15 47 -34 57 -57 136 -57 196 0 l26 25 88 -26 c203 -59 413 -56
615 7 l65 20 33 -30 c59 -55 146 -51 195 8 16 18 39 31 63 36 42 8 104 60 104
88 0 8 16 23 36 32 73 35 91 107 53 209 l-21 56 30 72 c44 104 66 232 58 339
l-6 87 53 -24 c87 -41 158 -27 197 38 25 41 25 71 -1 187 -16 70 -22 135 -24
248 -2 120 -6 157 -19 177 -27 41 -62 58 -114 56 -114 -7 -134 1 -257 104 -63
53 -86 65 -125 65 -54 0 -101 -30 -192 -121 -60 -60 -95 -89 -115 -91 l-28 -4
27 -8 c26 -7 35 -1 115 81 106 107 165 141 218 123 19 -6 61 -34 93 -61 80
-69 185 -121 218 -109 39 15 74 12 109 -10 45 -28 58 -65 50 -142 -8 -73 8
-226 35 -343 22 -95 18 -126 -22 -165 -43 -44 -92 -43 -180 1 -32 16 -59 29
-61 29 -3 0 0 -24 5 -52 13 -70 4 -239 -17 -308 -9 -30 -28 -81 -42 -112 l-25
-56 27 -68 c33 -83 29 -120 -21 -163 -19 -17 -40 -31 -47 -31 -7 0 -19 -16
-26 -36 -15 -41 -62 -74 -107 -74 -23 0 -34 -7 -44 -26 -35 -64 -127 -70 -186
-13 l-34 33 -67 -22 c-214 -70 -449 -69 -654 3 l-67 23 -13 -25 c-17 -32 -59
-53 -105 -53 -30 0 -44 7 -75 40 -28 29 -46 40 -68 40 -36 0 -96 48 -105 85
-4 14 -13 25 -22 25 -9 0 -32 16 -51 35 -33 33 -35 39 -31 89 2 29 14 71 25
93 l21 40 -29 59 c-15 33 -35 87 -44 119 -21 79 -30 227 -17 295 6 30 9 56 7
58 -2 2 -29 -10 -62 -26 -91 -46 -131 -46 -179 2 -41 41 -43 64 -13 196 16 71
22 134 24 249 l2 154 36 34 c38 34 88 44 125 24 34 -18 128 31 226 117 100 89
151 77 294 -66 l95 -94 71 21 c180 52 346 54 561 6 21 -4 26 -3 15 3 -31 21
-179 44 -280 44 -106 1 -181 -9 -300 -38 l-65 -16 -91 91 c-50 50 -107 98
-127 106 -43 18 -94 19 -122 3z"/>
<path d="M704 1805 c-96 -77 -181 -118 -251 -120 l-56 -2 -3 -114 c-1 -63 -12
-163 -24 -223 -12 -59 -19 -110 -17 -112 6 -6 88 41 143 84 123 95 239 299
270 475 3 20 9 37 13 37 4 0 40 -34 80 -75 70 -72 91 -87 91 -65 0 12 -155
170 -167 170 -5 0 -41 -25 -79 -55z"/>
<path d="M2004 1829 c-75 -59 -145 -149 -118 -149 4 0 34 29 66 65 92 100 91
100 118 -3 44 -171 148 -342 256 -424 47 -35 133 -88 145 -88 3 0 -3 39 -14
88 -10 48 -21 150 -24 227 l-6 140 -56 0 c-72 0 -158 41 -253 119 -37 31 -69
56 -71 56 -2 0 -22 -14 -43 -31z"/>
<path d="M1001 1202 c-49 -24 -74 -63 -75 -114 l-1 -43 52 -3 c88 -5 135 32
149 115 6 40 5 43 -20 53 -39 14 -66 12 -105 -8z"/>
<path d="M1713 1210 c-26 -10 -27 -19 -13 -71 19 -68 86 -109 168 -101 30 3
32 6 32 40 0 42 -28 94 -62 116 -30 20 -97 28 -125 16z"/>
<path d="M1349 1071 c-16 -16 -29 -36 -29 -44 0 -8 18 -33 40 -56 l41 -42 -20
-27 c-39 -55 -90 -94 -152 -118 l-64 -24 62 3 c76 4 125 37 162 110 l23 48 23
-50 c32 -67 86 -103 163 -108 l57 -3 -57 21 c-60 21 -134 79 -157 122 -13 24
-11 29 23 68 44 52 45 70 5 103 -41 35 -83 34 -120 -3z"/>
<path d="M738 668 c-38 -46 -78 -119 -78 -140 1 -32 130 143 130 177 0 15 -22
0 -52 -37z"/>
<path d="M2045 674 c28 -68 125 -181 125 -146 0 14 -70 126 -98 155 -35 37
-45 34 -27 -9z"/>
<path d="M833 579 c-31 -45 -73 -138 -73 -161 0 -25 43 30 76 98 45 91 43 130
-3 63z"/>
<path d="M1955 595 c10 -42 51 -125 80 -160 23 -27 25 -28 25 -9 0 28 -64 156
-91 180 -20 18 -20 18 -14 -11z"/>
<path d="M940 513 c-25 -56 -40 -116 -39 -158 0 -27 3 -24 29 29 27 55 49 160
37 172 -3 3 -15 -16 -27 -43z"/>
<path d="M1855 508 c7 -54 36 -141 56 -168 8 -11 9 1 6 45 -4 55 -47 175 -62
175 -4 0 -4 -24 0 -52z"/>
</g>
</svg>
